<?xml version="1.0" encoding="utf-8"?>
<!-- Generator: Adobe Illustrator 23.0.3, SVG Export Plug-In . SVG Version: 6.00 Build 0)  -->
<svg version="1.1" id="Capa_1" xmlns="http://www.w3.org/2000/svg" xmlns:xlink="http://www.w3.org/1999/xlink" x="0px" y="0px"
	 viewBox="0 0 15.6 15.6" style="enable-background:new 0 0 15.6 15.6;" xml:space="preserve">
<style type="text/css">
	.st0{fill:#FBB040;}
</style>
<g>
	<g>
		<path class="st0" d="M3.7,3.8h0.7c0.3,0,0.5-0.2,0.5-0.4v-3C4.9,0.2,4.7,0,4.4,0H3.7C3.5,0,3.3,0.2,3.3,0.4v3
			C3.3,3.6,3.5,3.8,3.7,3.8z"/>
		<path class="st0" d="M11.1,3.8h0.7c0.3,0,0.5-0.2,0.5-0.4v-3c0-0.2-0.2-0.4-0.5-0.4h-0.7c-0.3,0-0.5,0.2-0.5,0.4v3
			C10.7,3.6,10.9,3.8,11.1,3.8z"/>
		<path class="st0" d="M14.8,1.4h-1.9v2.3c0,0.5-0.5,0.9-1,0.9h-0.7c-0.6,0-1-0.4-1-0.9V1.4H5.5v2.3c0,0.5-0.5,0.9-1,0.9H3.7
			c-0.6,0-1-0.4-1-0.9V1.4H0.8C0.5,1.4,0.3,1.7,0.3,2v13c0,0.3,0.3,0.6,0.3,0.6h13.9c0.5,0,0.8-0.3,0.8-0.6V2
			C15.3,1.7,15.1,1.4,14.8,1.4z M14.4,14.3c0,0.6-0.5,0.5-0.5,0.5H8.9c0,0,3.1-1.6,5.6-3.8C14.4,11,14.4,13.6,14.4,14.3z M14.6,9.5
			c-0.2,0.8-0.7,1.8-1.5,1.2c-1.3-0.9-2.5-1.7-2.6,0.1c-0.1,1.6-3,3.7-3.7,4.2H1.2C1.1,15,1,14.9,1,14.8v-8c0-0.1,0.1-0.2,0.2-0.2
			h13.2c0.1,0,0.2,0.1,0.2,0.2L14.6,9.5L14.6,9.5z"/>
		<rect x="3.3" y="8" class="st0" width="2.2" height="2.2"/>
		<rect x="6.9" y="8" class="st0" width="2.2" height="2.2"/>
		<rect x="3.3" y="11.3" class="st0" width="2.2" height="2.2"/>
		<path class="st0" d="M6.9,13.5h0.6c0.5-0.4,1.2-1.2,1.6-1.7v-0.5H6.9V13.5z"/>
		<path class="st0" d="M10.4,9c0.2-0.2,0.5-0.3,0.7-0.3c0.5,0,1,0.3,1.5,0.6V8h-2.2V9z"/>
	</g>
</g>
</svg>
