<?xml version="1.0" encoding="utf-8"?>
<!-- Generator: Adobe Illustrator 23.0.3, SVG Export Plug-In . SVG Version: 6.00 Build 0)  -->
<svg version="1.1" id="Capa_1" xmlns="http://www.w3.org/2000/svg" xmlns:xlink="http://www.w3.org/1999/xlink" x="0px" y="0px"
	 viewBox="0 0 487.1 487.1" style="enable-background:new 0 0 487.1 487.1;" xml:space="preserve">
<style type="text/css">
	.st0{fill:#2D9CDB;}
</style>
<g>
	<g>
		<path class="st0" d="M459.5,168.6c3.5,3.5,9.1,3.5,12.5,0l12.5-12.5c3.5-3.5,3.5-9.1,0-12.5l-28.3-28.3c-3.5-3.5-9.1-3.5-12.5,0
			l-12.5,12.5c-3.5,3.5-3.5,9.1,0,12.5l1.2,1.2l-8.8,8.8c-22.2-17.6-49.1-29.3-78.6-32.7v-16h9.7c4.9,0,8.8-4,8.8-8.8v-26
			c0-4.9-4-8.8-8.8-8.8h-56.2c-4.9,0-8.8,4-8.8,8.8v26c0,4.9,4,8.8,8.8,8.8h9.7v16c-29.5,3.5-56.5,15.2-78.6,32.7l-8.8-8.8l1.2-1.2
			c3.5-3.5,3.5-9.1,0-12.5l-12.5-12.5c-3.5-3.5-9.1-3.5-12.5,0l-28.3,28.3c-3.5,3.5-3.5,9.1,0,12.5l12.5,12.5
			c3.5,3.5,9.1,3.5,12.5,0l1.2-1.2l8.8,8.8c-21,26.6-33.5,60.2-33.5,96.6c0,86.2,70.2,156.4,156.4,156.4S483,359,483,272.8
			c0-36.4-12.6-70-33.5-96.6l8.8-8.8L459.5,168.6z M326.6,393c-66.2,0-120.1-53.9-120.1-120.1s53.9-120.1,120.1-120.1
			s120.1,53.9,120.1,120.1S392.8,393,326.6,393z"/>
		<path class="st0" d="M63.5,314.8c-8.6,0-15.5,7-15.5,15.5c0,8.6,7,15.5,15.5,15.5h84.1c1.7,0,3.2-0.3,4.7-0.8
			c-4-9.7-7.3-19.8-9.6-30.3L63.5,314.8L63.5,314.8z"/>
		<path class="st0" d="M152.2,201c-1.4-0.4-3-0.8-4.6-0.8H15.5c-8.6,0-15.5,7-15.5,15.5c0,8.6,7,15.5,15.5,15.5h127.1
			C144.9,221,148.1,210.8,152.2,201z"/>
		<path class="st0" d="M138,272.9c0-5.2,0.3-10.3,0.7-15.4H37.1c-8.6,0-15.5,7-15.5,15.5s7,15.5,15.5,15.5h101.5
			C138.3,283.4,138,278.2,138,272.9z"/>
		<path class="st0" d="M402.1,228.2c-2.6-4.3-8-6-12.5-3.7L335.5,251c-6.7-2.7-14.5-2.4-21.2,1.5c-11.3,6.7-15.1,21.3-8.4,32.6
			s21.3,15.1,32.6,8.4c6.7-4,10.7-10.7,11.5-17.8l49.3-34.7C403.5,238.1,404.7,232.6,402.1,228.2z M336.6,275.5
			c-1.5,5.6-7.2,8.9-12.7,7.5c-5.6-1.5-8.9-7.2-7.5-12.7c1.5-5.6,7.2-8.9,12.7-7.5C334.7,264.2,338,270,336.6,275.5z"/>
		<path class="st0" d="M360.4,213.3c4.7,2.7,10.7,1,13.3-3.7c2.7-4.7,1-10.7-3.7-13.3c-4.7-2.7-10.6-1-13.3,3.7
			c-1.8,3.2-1.6,6.9,0.1,9.8C357.7,211.1,358.9,212.4,360.4,213.3z"/>
		<path class="st0" d="M326,204.3c5.4,0,9.7-4.4,9.7-9.8c0-5.4-4.4-9.7-9.8-9.7s-9.7,4.4-9.7,9.8c0,1.8,0.5,3.5,1.3,4.9
			C319.2,202.4,322.4,204.4,326,204.3z"/>
		<path class="st0" d="M327.3,341.7L327.3,341.7c-5.4,0.1-9.7,4.5-9.7,9.9c0,1.8,0.5,3.4,1.3,4.8c1.7,2.9,4.9,4.9,8.5,4.8
			c5.4-0.1,9.7-4.5,9.6-9.9C337.1,346.1,332.7,341.7,327.3,341.7z"/>
		<path class="st0" d="M361.5,332.2c-4.6,2.7-6.2,8.7-3.4,13.3l0,0c2.7,4.7,8.7,6.2,13.4,3.4c4.6-2.7,6.2-8.7,3.4-13.3
			C372.1,331,366.1,329.5,361.5,332.2z"/>
		<path class="st0" d="M399.7,303.2c-4.7-2.6-10.7-1-13.3,3.7c-1.8,3.2-1.6,6.8,0.1,9.8c0.8,1.4,2.1,2.7,3.6,3.5
			c4.7,2.7,10.7,1,13.3-3.7C406,311.8,404.4,305.8,399.7,303.2z"/>
		<path class="st0" d="M257.8,273.8c0-5.4-4.5-9.7-9.8-9.7c-5.4,0.1-9.7,4.5-9.7,9.9c0,1.8,0.5,3.4,1.3,4.8c1.7,2.9,4.9,4.9,8.5,4.8
			C253.6,283.6,257.9,279.2,257.8,273.8z"/>
		<path class="st0" d="M254.1,304.6c-4.6,2.7-6.2,8.7-3.4,13.3l0,0c2.7,4.6,8.7,6.2,13.4,3.4c4.6-2.7,6.1-8.7,3.4-13.4
			C264.7,303.4,258.7,301.8,254.1,304.6z"/>
		<path class="st0" d="M395.3,272.4c0,1.8,0.5,3.4,1.4,4.9c1.7,2.9,4.9,4.8,8.5,4.8c5.4,0,9.7-4.5,9.7-9.8c0-5.4-4.4-9.7-9.8-9.7
			C399.6,262.6,395.2,267.1,395.3,272.4z"/>
		<path class="st0" d="M253.4,243.1c4.7,2.7,10.7,1,13.3-3.7l0,0c2.6-4.7,1-10.6-3.8-13.3c-4.7-2.6-10.6-1-13.3,3.7
			c-1.7,3.1-1.6,6.8,0.1,9.8C250.6,241,251.8,242.2,253.4,243.1z"/>
		<path class="st0" d="M291.5,214c0,0,0.1,0,0.1-0.1c0.1,0,0.1,0,0.1-0.1c0,0,0,0,0.1,0c4.6-2.7,6.1-8.7,3.4-13.3
			c-2.7-4.7-8.7-6.2-13.4-3.5c0,0-0.1,0-0.1,0.1c-0.1,0-0.1,0.1-0.2,0.1c-4.6,2.7-6.2,8.7-3.4,13.3l0,0
			C280.9,215.2,286.9,216.7,291.5,214z"/>
		<path class="st0" d="M292.8,332.9c-4.7-2.7-10.7-1-13.3,3.7c-1.8,3.2-1.6,6.9,0.1,9.8c0.8,1.4,2.1,2.7,3.6,3.6
			c4.7,2.6,10.7,0.9,13.3-3.7C299.2,341.5,297.5,335.6,292.8,332.9z"/>
	</g>
</g>
</svg>
