<?xml version="1.0" encoding="utf-8"?>
<!-- Generator: Adobe Illustrator 23.0.3, SVG Export Plug-In . SVG Version: 6.00 Build 0)  -->
<svg version="1.1" id="Calque_1" xmlns="http://www.w3.org/2000/svg" xmlns:xlink="http://www.w3.org/1999/xlink" x="0px" y="0px"
	 viewBox="0 0 448 448" style="enable-background:new 0 0 448 448;" xml:space="preserve">
<style type="text/css">
	.st0{fill:#FFFFFF;}
</style>
<path class="st0" d="M224,213.3c-58.8,0-106.7-47.8-106.7-106.7S165.2,0,224,0s106.7,47.9,106.7,106.7S282.8,213.3,224,213.3z
	 M224,32c-41.2,0-74.7,33.5-74.7,74.7s33.5,74.7,74.7,74.7s74.7-33.5,74.7-74.7S265.2,32,224,32z"/>
<path class="st0" d="M400,448H48c-8.8,0-16-7.2-16-16v-74.7C32,301.5,77.5,256,133.3,256h181.3c55.9,0,101.3,45.5,101.3,101.3V432
	C416,440.8,408.8,448,400,448z M64,416h320v-58.7c0-38.2-31.1-69.3-69.3-69.3H133.3C95.1,288,64,319.1,64,357.3V416z"/>
</svg>
