<?xml version="1.0" encoding="utf-8"?>
<!-- Generator: Adobe Illustrator 23.0.3, SVG Export Plug-In . SVG Version: 6.00 Build 0)  -->
<svg version="1.1" id="Calque_1" xmlns="http://www.w3.org/2000/svg" xmlns:xlink="http://www.w3.org/1999/xlink" x="0px" y="0px"
	 viewBox="0 0 350 350" style="enable-background:new 0 0 350 350;" xml:space="preserve">
<style type="text/css">
	.st0{fill:#FFFFFF;}
</style>
<desc>Created with Fabric.js 1.7.22</desc>
<g id="icon" transform="translate(-1.9444444444444287 -1.9444444444444287) scale(3.89 3.89)">
	<path class="st0" d="M69.3,54.4c-0.4,0-0.8-0.1-1.1-0.4c-0.9-0.6-1.1-1.9-0.5-2.8l10.1-14.4L67.7,22.5c-0.6-0.9-0.4-2.2,0.5-2.8
		c0.9-0.6,2.2-0.4,2.8,0.5l10.9,15.5c0.5,0.7,0.5,1.6,0,2.3L71,53.6C70.6,54.1,69.9,54.4,69.3,54.4z"/>
	<path class="st0" d="M57.7,30.1c1.1,0,2-0.9,2-2V2c0-1.1-0.9-2-2-2H9.8c0,0,0,0,0,0c0,0-0.1,0-0.1,0C9.5,0,9.4,0,9.3,0.1
		c0,0-0.1,0-0.1,0C9,0.2,8.9,0.2,8.8,0.3c0,0-0.1,0-0.1,0c0,0,0,0,0,0C8.6,0.4,8.4,0.5,8.3,0.6c0,0,0,0-0.1,0.1
		C8.2,0.8,8.1,0.9,8.1,1C8,1,8,1,8,1.1C7.9,1.2,7.9,1.3,7.9,1.4c0,0,0,0.1,0,0.1c0,0.2-0.1,0.3-0.1,0.5v69.8c0,0.2,0,0.3,0.1,0.5
		c0,0,0,0.1,0,0.1c0,0.1,0.1,0.2,0.2,0.3c0,0,0,0.1,0.1,0.1c0.1,0.1,0.2,0.3,0.3,0.4c0,0,0,0,0.1,0.1c0.1,0.1,0.2,0.2,0.3,0.2
		c0,0,0,0,0.1,0l31,16.2c0.3,0.2,0.6,0.2,0.9,0.2c0.4,0,0.7-0.1,1-0.3c0.6-0.4,1-1,1-1.7V73.8h14.9c1.1,0,2-0.9,2-2V45
		c0-1.1-0.9-2-2-2s-2,0.9-2,2v24.8H42.8V18.2c0-0.7-0.4-1.4-1.1-1.8L17.9,4h37.8v24.1C55.7,29.2,56.6,30.1,57.7,30.1z"/>
	<path class="st0" d="M80.2,38.9H47.5c-1.1,0-2-0.9-2-2s0.9-2,2-2h32.7c1.1,0,2,0.9,2,2S81.3,38.9,80.2,38.9z"/>
</g>
</svg>
