<?xml version="1.0" encoding="utf-8"?>
<!-- Generator: Adobe Illustrator 23.0.3, SVG Export Plug-In . SVG Version: 6.00 Build 0)  -->
<svg version="1.1" id="_x33_0" xmlns="http://www.w3.org/2000/svg" xmlns:xlink="http://www.w3.org/1999/xlink" x="0px" y="0px"
	 viewBox="0 0 512 512" style="enable-background:new 0 0 512 512;" xml:space="preserve">
<style type="text/css">
	.st0{fill:#FBB040;}
</style>
<g>
	<circle class="st0" cx="368" cy="168" r="8"/>
	<path class="st0" d="M443.8,50.4C405.1,41,366.2,60.5,350.7,96H328c-8.8,0-16,7.2-16,16v16c0,8.8,7.2,16,16,16h11
		c-5,11.6-11,30.8-11,56v8h16.8c3.7,18.2,19.9,32,39.2,32v34.2c-7.7,4.2-14.8,9.4-21,15.6c-1.1,1.1-2.2,2.4-3.2,3.6L280,270.5V184
		h-60.9l-17.6-17.6l-28.8,20.6l-5.8-34.9h-45.5l-5.8,34.9l-28.8-20.6l-17.8,17.8C35,185.9,8,213.8,8,248v192c0,35.3,28.7,64,64,64
		h224v-64h40v64h136V336v-8c0-20.7-7.6-49.1-24.4-67.4l-2.7-19.2l10.3-6.4c30.6-19.1,48.9-52.1,48.9-88.2v-17.9
		C504,91.2,479.2,58.9,443.8,50.4L443.8,50.4z M440.1,65.9c27.5,6.6,47.5,32.6,47.9,62.1h-48v-16c0-8.8-7.2-16-16-16h-55.4
		C382.6,71.7,411.4,59,440.1,65.9z M328,112h96v16h-96V112z M400,240h16v-16h-32c-13.2,0-24-10.8-24-24v-8h-15.8
		c1.4-24.1,8.8-41,12.4-48H424v32h8c4.4,0,8,3.6,8,8c0,3-1.2,5.9-3.3,8l-13.2,13.2l7.6,53.1l-28.4,8.1c-0.9,0.3-1.8,0.7-2.7,1
		L400,240z M407.1,281.7l25.4-7.3l-29.9,24.9L396,286C399.6,284.3,403.3,282.8,407.1,281.7z M349.5,307c-5.3,8.7-9.1,18.2-11.3,28.1
		l-42.2-12V296h-16v-8.8L349.5,307z M264,408c0-8.8,7.2-16,16-16h16v32h-16C271.2,424,264,416.8,264,408z M296,376v-36.2l40.2,11.5
		c0,1.2-0.2,2.4-0.2,3.6V376L296,376z M232.6,200H264v96h-42.8l-8.1-11.4l34.9-5.8v-45.5l-34.9-5.8L232.6,200z M88.3,187.2
		l27.8,19.9l4.2-1.9c1.4-0.6,2.8-1.2,4.2-1.7l4.6-1.5l5.7-34h18.5l5.7,34l4.6,1.5c1.4,0.5,2.8,1.1,4.2,1.7l4.2,1.9l27.8-19.9
		l13.1,13.1l-19.9,27.8l1.9,4.2c0.6,1.4,1.2,2.8,1.7,4.2l1.5,4.6l34,5.7v18.5l-34,5.7l-1.5,4.6c-0.5,1.4-1.1,2.8-1.7,4.2l-1.9,4.2
		l8.7,12.1H144H86.4l8.7-12.1l-1.9-4.2c-0.6-1.4-1.2-2.8-1.7-4.2l-1.5-4.6l-34-5.7v-18.5l34-5.7l1.5-4.6c0.5-1.4,1.1-2.8,1.7-4.2
		l1.9-4.2l-19.9-27.8L88.3,187.2z M57.1,202.4l17.8,25L40,233.2v45.5l34.9,5.8L67,295.7c-24.1-2.5-43-23-43-47.7
		C24,226.8,37.9,208.8,57.1,202.4z M24,440V290.2C35.7,303.5,52.9,312,72,312h208v64c-17.6,0-32,14.4-32,32h-16v-80h-64v80h-32v80
		H72C45.5,488,24,466.5,24,440L24,440z M216,408h-32v-64h32V408z M280,488H152v-64h100.4c5.6,9.5,15.8,16,27.6,16V488z M456,488H352
		v-48h34.6c26.2,0,50.1-13.3,64-35.5c1.9-3.1,3.7-6.2,5.4-9.1L456,488z M456,336c0,21.4-5.3,38.2-19,60c-10.9,17.5-29.8,28-50.5,28
		H312v-32h75.1c6.1,0,11.6-3.4,14.3-8.8l21.8-43.6l-14.3-7.2L387.1,376H352v-21.2c0-20.3,7.9-39.4,22.3-53.8
		c2.5-2.5,5.1-4.7,7.9-6.8l15.2,30.4l47.8-39.8c6.7,12.6,10.8,28.5,10.8,43.2L456,336z M446.6,221.4l-4.3,2.7l-1.9-13.2l7.5-7.5
		c5.2-5.2,8-12,8-19.3c0-10.4-6.7-19.3-16-22.6V144h48v2.8C488,177.3,472.5,205.2,446.6,221.4L446.6,221.4z"/>
	<path class="st0" d="M232,456h16v16h-16V456z"/>
	<path class="st0" d="M200,456h16v16h-16V456z"/>
	<path class="st0" d="M168,456h16v16h-16V456z"/>
	<path class="st0" d="M72,376h80v16H72V376z"/>
	<path class="st0" d="M72,344h80v16H72V344z"/>
	<path class="st0" d="M72,408h48v16H72V408z"/>
	<path class="st0" d="M72,440h48v16H72V440z"/>
	<path class="st0" d="M136,54.5V136h16V54.5c9.3-3.3,16-12.1,16-22.5c0-13.2-10.8-24-24-24s-24,10.8-24,24
		C120,42.4,126.7,51.2,136,54.5z M144,24c4.4,0,8,3.6,8,8s-3.6,8-8,8s-8-3.6-8-8S139.6,24,144,24z"/>
	<path class="st0" d="M32,120c10.4,0,19.2-6.7,22.5-16H104v32h16V88H54.5C51.2,78.7,42.4,72,32,72C18.8,72,8,82.8,8,96
		S18.8,120,32,120z M32,88c4.4,0,8,3.6,8,8s-3.6,8-8,8s-8-3.6-8-8S27.6,88,32,88z"/>
	<path class="st0" d="M168,56v80h16V72h16v48h48v-16h-32V72h49.5c3.3,9.3,12.1,16,22.5,16c13.2,0,24-10.8,24-24s-10.8-24-24-24
		c-10.4,0-19.2,6.7-22.5,16H216V40h-16v16H168z M288,56c4.4,0,8,3.6,8,8s-3.6,8-8,8s-8-3.6-8-8S283.6,56,288,56z"/>
	<path class="st0" d="M120,56H88V40H72v32h48V56z"/>
	<path class="st0" d="M72,8h16v16H72V8z"/>
	<path class="st0" d="M184,256c0-22.1-17.9-40-40-40s-40,17.9-40,40s17.9,40,40,40S184,278.1,184,256z M144,280
		c-13.2,0-24-10.8-24-24s10.8-24,24-24s24,10.8,24,24S157.2,280,144,280z"/>
	<path class="st0" d="M200,8h16v16h-16V8z"/>
	<path class="st0" d="M264,104h16v16h-16V104z"/>
</g>
</svg>
