<?xml version="1.0" encoding="utf-8"?>
<!-- Generator: Adobe Illustrator 23.0.3, SVG Export Plug-In . SVG Version: 6.00 Build 0)  -->
<svg version="1.1" id="Calque_1" xmlns="http://www.w3.org/2000/svg" xmlns:xlink="http://www.w3.org/1999/xlink" x="0px" y="0px"
	 viewBox="0 0 512 512" style="enable-background:new 0 0 512 512;" xml:space="preserve">
<style type="text/css">
	.st0{fill:#FFFFFF;}
</style>
<path class="st0" d="M492,352c11,0,20-9,20-20V80c0-44.1-35.9-80-80-80H80C35.9,0,0,35.9,0,80v352c0,44.1,35.9,80,80,80h352
	c44.1,0,80-35.9,80-80c0-11-9-20-20-20s-20,9-20,20c0,22.1-17.9,40-40,40h-98V326h46.3c10.1,0,18.6-7.6,19.9-17.6l2.6-22
	c1.4-11.9-7.9-22.4-19.9-22.4H334v-67c0-16.6,13.4-30,30-30h25c11,0,20-9,20-20v-20.2c0-10.2-7.7-18.9-17.9-19.9
	c-10.1-1-20.9-1.9-27.1-1.9c-23.3,0-46.7,9.8-64.1,27c-18,17.7-27.9,40.8-27.9,65.2V264h-45c-11,0-20,9-20,20v22c0,11,9,20,20,20h45
	v146H80c-22.1,0-40-17.9-40-40V80c0-22.1,17.9-40,40-40h352c22.1,0,40,17.9,40,40v252C472,343,481,352,492,352z"/>
</svg>
