<?xml version="1.0" encoding="utf-8"?>
<!-- Generator: Adobe Illustrator 23.0.3, SVG Export Plug-In . SVG Version: 6.00 Build 0)  -->
<svg version="1.1" id="Layer_1" xmlns="http://www.w3.org/2000/svg" xmlns:xlink="http://www.w3.org/1999/xlink" x="0px" y="0px"
	 viewBox="0 0 512 512" style="enable-background:new 0 0 512 512;" xml:space="preserve">
<style type="text/css">
	.st0{fill:#2D9CDB;}
</style>
<g>
	<g>
		<path class="st0" d="M506.2,142.5c-3.9-14.6-24.1-18.7-47.6-23.5l-2.7-0.5c-1.8-0.4-2.1-0.7-4-2.8c-3.2-3.5-8-8.9-20-11.7
			c-2.7-0.6-3-1-4.6-3.1c-4.5-6-10.1-11.6-28-13.3c-9.2-0.9-9.7-2.9-10.9-8.2c-1-4.4-3.8-16.2-17.8-16.2c-10.1,0-14.3-1.3-16.1-2.4
			c-1.4-0.8-2.1-2-3.8-5.6c-2.7-5.3-6.4-12.7-16.4-19.8c-8.7-6.2-13.7-14.1-19-22.5c-1.8-2.9-3.7-5.8-5.7-8.7c-2.4-3.4-6.5-5-10.5-4
			c-27.2,6.5-35.8,9.5-39.9,16.2c-3.1,5.1-1.9,10-1.2,12.9c0.8,3.3,1.6,6.7-4.6,15.4c-2.4,3.4-2.4,7-2.3,8.7c0,0.1,0,0.3,0,0.5
			c-0.6,0.8-3.6,3.7-14.8,8c-4.2,1.6-8.8,1.8-13.2,2c-9.1,0.4-24.1,1.1-27.1,20.7c-2.1,0.9-6.3,1.8-10.9,0.9
			c-5.4-1.1-9.6-4.4-12.3-9.7c-8.1-15.6-28.8-22.2-41.2-17.5c-9.3,3.5-13.6,12.5-10.9,22.9c0.7,2.6,1.5,5.5,2.4,8.6
			c1.7,6,5.5,19.3,5.4,25c-0.2,0.1-0.4,0.3-0.6,0.4c-1-0.8-2.1-1.5-3.3-1.9c-4-1.4-7.7-0.3-11.3,0.8c-8,2.4-12.3,3.7-16.5-8.4
			c-1.2-3.3-4-5.8-7.4-6.5c-16.3-3.4-26.3-2.6-32.6,2.9c-1.6-1-3.7-2.4-6.7-4.4c-8.8-6-25.7-2.3-34.5,2.6
			c-9.2,5.2-10.2,11.8-10,15.3c0.3,4.8,2.8,8.9,7.7,12.2c-3.7,4.7-8.4,11.4-6.6,19.8c1.4,6.4,6.2,11.6,14.6,15.8
			c6.5,3.2,10.3,3.7,14.2,4c2.5,0.2,4.9,0.3,13.2,5.1C67,182.9,87,198.8,89.5,210.5c0.6,2.6,0.2,4.7-1.4,6.9
			c-1.6,2.2-3.8,5.3,0.9,18.6c2.9,8.2,9.5,22.4,22.4,26.9c0.9,2.4,1.4,8.4,1.6,12.1c0.6,7.9,1.2,16.1,5.2,22c-0.4,0.9-0.9,2-1.3,2.9
			c-1.4,2.9-3.1,6.4-4.4,10.4c-1.7,5.2,1.1,10.9,6.4,12.6s10.9-1.1,12.6-6.4c0.9-2.7,2.2-5.4,3.4-8c3-6.3,7.5-15.8-0.1-22.7
			c-1-2-1.5-8.4-1.8-12.3c-0.8-10.8-1.9-25.7-14.7-29.4c-5.3-1.5-10.1-12.8-11.6-18.8c3.1-5.9,3.9-12.5,2.4-19.2
			c-5.1-23.1-37.2-43.5-50.7-51.2c-11.4-6.5-16.6-7.3-21.8-7.6c-2.1-0.1-3.2-0.2-6.7-1.9c-1.8-0.9-2.9-1.6-3.5-2.1
			c0.7-1.2,2.2-3,3.1-4.2c3.3-4.1,7.8-9.8,6.1-16.9c-0.5-2-1.7-4.6-4.2-6.8c3-0.7,6.1-1.1,7.8-0.8c11.2,7.6,16.5,10.6,22.5,9.1
			c4.8-1.1,7.1-4.7,8-6.4c1.1-0.2,4-0.5,10.2,0.5c10.9,23.2,30.8,17.8,38.4,15.6c3.9,1.9,8.8,2.4,13.4,1.7c3.6-0.5,6.2-1.8,8-3.4
			c2.3-1.2,4.2-3,5.7-5.2c5.7-9,2.3-23.2-3.2-42.2c-0.8-2.7-1.5-5.3-2.1-7.5c3.9-0.2,11.9,2.6,14.9,8.3c9.9,19.1,28.8,22.8,42,20.1
			c10.8-2.2,18-8.2,18.6-15.8c0.3-3.2,0.9-4.3,1-4.6c1.1-0.6,4.9-0.7,7.4-0.8c5.5-0.2,12.2-0.5,19.5-3.3
			c19.1-7.3,27.3-14.9,27.6-26.2c7.9-11.9,8.2-20.4,6.8-27.6c4.4-1.7,12.7-3.9,19.1-5.5c0.5,0.7,1,1.5,1.4,2.3
			c5.8,9.2,12.4,19.6,24.3,28.1c6,4.2,7.9,8.1,10.1,12.5c5.5,10.8,11.3,18.5,36,18.9c0.1,0.3,0.1,0.5,0.2,0.7
			c1.6,6.9,4.9,21.3,28.5,23.6c10.7,1,12.1,3,14,5.4c2.5,3.3,6.2,8.3,16,10.5c5.9,1.4,7.4,3.1,9.7,5.6c2.8,3.1,6.6,7.3,14.9,9
			l2.7,0.5c10.2,2.1,26.7,5.4,31.6,8.9c-0.7,1-2.1,2.8-5,5.4c-12,10.5-13.9,29.6-15.6,46.5c-0.7,7-1.7,17.4-3.5,20.6
			c-5.6,1.5-9.8,5.3-13.9,9c-4.2,3.8-8.2,7.4-12.9,7.9c-13.8,1.5-23.7,11.9-24.8,25.9c-1,13,6.1,24.4,16.8,27.3
			c7.9,2.1,10.5,3.6,11.2,4.1c0.1,0.6,0.2,1.8,0.2,2.8c0.2,3.2,0.5,7.7,2.4,13.4c-0.1,0.1-0.2,0.2-0.3,0.3
			c-3.3,2.5-8.9,6.7-8.8,13.9c0.1,3.2,1.4,8,7.4,12.1c2,1.4,3.1,2.6,3.8,3.4c-5.5,0.1-13.5,1.5-17,8.6c-4.5,9.3,2.8,17.8,9.8,26
			c1.3,1.5,3,3.5,4.4,5.3c-8.7,7.9-7.9,16.6-7,20.4c1.3,5.6,5.1,11,11,16.1c5.1,4.3,9.1,6.6,12.1,6.8c1.5,0.1,2.9,0.2,4.2,0.3
			c-0.2,0.9-0.3,1.9-0.5,3c-1,8.4-7,10.8-19.5,14.1c-8.7,2.3-19.5,5.1-21.7,15.8c-1,5.1-9.6,9.8-15,9.5c-4.2-0.2-7.8-3.1-13.3-7.9
			c-7.3-6.3-17.3-14.9-32.8-12.8c-10.5,1.4-15,0.7-16.8,0.2c-1.1-0.3-1.2-0.5-2.4-2c-6.7-8.4-14.5-10-29.8-6
			c-29.6,7.6-43.9,24.1-43.3,50.2c-2.7,0.2-5.3,0.9-7.6,2.6c-3.1,2.2-3.1,2.2-6.8,0.1c-3.4-2-8.6-5-15.6-3.6c-2,0.4-3.3,0.5-4,0.4
			c-0.3-0.9-0.5-2.3-0.7-3.3c-0.8-4.1-2-10.4-7.8-14.1c-3.8-2.4-8.4-3-13.7-1.7c-5.7,1.4-8.2,1.2-9,1.1c-0.2-0.3-0.4-0.7-0.6-1
			c-2.1-3.6-7.2-11.9-21.7-9c-20,4.1-24.7,1.2-27.9-0.7c-2.3-1.4-5.7-3.5-10.6-3.5c-8,0-10-1.5-11.9-2.9c-1.5-1.1-3.7-2.7-6.8-3.6
			c-7.2-1.9-12.9-4.1-16.9-6.4c0,0-0.1,0-0.1-0.1c0-0.3,0-0.6,0-0.9c0.3-7.9-1.2-16-13.8-22.7c2-4.5,6.1-11.4,9-16.5
			c2.8-4.8,1.2-10.9-3.6-13.7c-4.8-2.8-10.9-1.2-13.7,3.6c-9.5,16.2-15.2,26-12.2,34.6c1.3,3.7,3.9,6.5,7.6,8c4.9,2,6.4,3.5,6.7,3.8
			c0,0.4,0,1.3,0,2c-0.2,4.2-0.6,13,10.1,19.2c5.5,3.2,12.5,5.9,21.2,8.3c0.2,0.1,0.4,0.3,0.6,0.5c4.4,3.2,10.1,6.7,23,6.8
			c0.3,0.2,0.6,0.4,0.9,0.5c7.4,4.5,16.7,8.4,42.2,3.2c0.3-0.1,0.5-0.1,0.7-0.1c5.8,9.6,14.2,12.4,28.6,9.5
			c0.9,4.4,2.4,11.4,8.9,15.7c4.8,3.2,10.9,4,18.7,2.6c0.5,0.3,1.4,0.8,2.1,1.2c2.8,1.7,7.4,4.4,13.5,4.4c3.8,0,8.2-1.1,13.1-4.1
			c1.1,0.4,2.6,1.1,3.1,1.5c3.2,2.9,7.9,3.3,11.7,1.2c3.7-2.2,5.6-6.5,4.7-10.7c-5.4-25.2,1.6-36.5,26.6-42.9
			c5.3-1.4,7.7-1.5,8.7-1.4c0.2,0.2,0.3,0.4,0.5,0.6c6.5,8.1,14.7,12.2,37.5,9.1c6.3-0.9,10.1,2.2,17,8.1c6.2,5.4,14,12.1,25.3,12.7
			c13.7,0.7,31-8.8,35.2-23.7c1.7-0.8,5.2-1.7,7.6-2.3c11.8-3.1,31.5-8.2,34.3-31c0.5-4.1,1.6-6.2,2.4-7.7c1-1.8,3.5-6.5,0.5-11.7
			c-3.1-5.3-8.3-5.5-12.9-5.6c-2.2-0.1-5.3-0.2-9.7-0.5c-3.3-2.2-7.2-5.9-7.6-7.7c0.2-0.3,0.9-1.3,3-2.6c3.4-2.1,5.6-5.5,6.2-9.3
			c1.2-8-4.7-14.9-11-22.3c-0.5-0.6-1-1.2-1.6-1.9c5.7-1.2,11.1-6.1,13.2-12.5c1.1-3.2,3.2-13.3-7-23.1c4-3.5,8.8-9.6,5.3-17.8
			c-1.9-4.4-2.1-7.5-2.3-10.8c-0.3-4.3-0.6-10.1-5.6-15.2c-3.9-4-9.9-6.9-20.6-9.7c-0.7-0.2-2.3-2.7-2-6.5c0.2-3.1,1.7-6.9,7-7.5
			c11.1-1.2,18.6-8,24.1-12.9c1.9-1.7,4.7-4.2,5.7-4.5c14.9-3,16.6-20.8,18.3-38c1.2-12.5,2.8-28.1,8.8-33.4
			C498.1,164.7,509.4,154.8,506.2,142.5L506.2,142.5z"/>
		<path class="st0" d="M297.4,257.8c16.7,0,39-28.8,43.3-34.6c10-13.4,26.7-39.7,26.7-66.1c0-18.5-7.7-36.7-21-50
			c-13.2-13.2-30.5-20.4-48.7-20.4c-0.2,0-0.3,0-0.5,0c-18.2,0-35.5,7.3-48.8,20.4c-13.4,13.3-21,31.5-21,50
			c0,26.4,16.7,52.7,26.7,66.1C258.4,229,280.8,257.8,297.4,257.8L297.4,257.8z M262.6,121.3c9.5-9.4,21.8-14.6,34.7-14.6h0.2
			c12.9-0.1,25.3,5.1,34.8,14.6c9.6,9.6,15.1,22.7,15.1,35.9c0,14.5-7.8,33.6-21.4,52.3c-12.6,17.4-24.6,26.8-28.6,28.2
			c-4-1.5-16-10.8-28.6-28.2c-13.6-18.8-21.4-37.9-21.4-52.3C247.4,143.9,252.9,130.9,262.6,121.3z"/>
		<path class="st0" d="M297.4,186.7c16.5,0,30-13.5,30-30s-13.5-30-30-30s-30,13.5-30,30S280.9,186.7,297.4,186.7z M297.4,146.7
			c5.5,0,10,4.5,10,10s-4.5,10-10,10s-10-4.5-10-10S291.9,146.7,297.4,146.7z"/>
		<path class="st0" d="M111.5,367.1c5.5,0,10-4.5,10-10s-4.5-10-10-10h0c-5.5,0-10,4.5-10,10S106,367.1,111.5,367.1z"/>
	</g>
</g>
</svg>
