<?xml version="1.0" encoding="utf-8"?>
<!-- Generator: Adobe Illustrator 23.0.3, SVG Export Plug-In . SVG Version: 6.00 Build 0)  -->
<svg version="1.1" id="Calque_1" xmlns="http://www.w3.org/2000/svg" xmlns:xlink="http://www.w3.org/1999/xlink" x="0px" y="0px"
	 viewBox="0 0 24 24" style="enable-background:new 0 0 24 24;" xml:space="preserve">
<style type="text/css">
	.st0{fill:none;}
	.st1{fill:#FBB040;}
</style>
<path class="st0" d="M0,0h24v24H0V0z"/>
<path class="st1" d="M12,12c-1.1,0-2-0.9-2-2s0.9-2,2-2s2,0.9,2,2S13.1,12,12,12z M18,10.2C18,6.6,15.4,4,12,4s-6,2.6-6,6.2
	c0,2.3,1.9,5.4,6,9.1C16,15.6,18,12.5,18,10.2z M12,2c4.2,0,8,3.2,8,8.2c0,3.3-2.7,7.3-8,11.8c-5.3-4.5-8-8.5-8-11.8
	C4,5.2,7.8,2,12,2z"/>
</svg>
