<?xml version="1.0" encoding="utf-8"?>
<!-- Generator: Adobe Illustrator 23.0.3, SVG Export Plug-In . SVG Version: 6.00 Build 0)  -->
<svg version="1.1" id="Capa_1" xmlns="http://www.w3.org/2000/svg" xmlns:xlink="http://www.w3.org/1999/xlink" x="0px" y="0px"
	 viewBox="0 0 499.1 499.1" style="enable-background:new 0 0 499.1 499.1;" xml:space="preserve">
<style type="text/css">
	.st0{fill:#FBB040;}
</style>
<g>
	<g>
		<path class="st0" d="M386.6,333.6c-2.6-6.6-5.8-13.1-10-19.2c-3.1-4.6-6.5-8.8-10.3-13.1c-3.6-4.2-8.1-8.2-12.5-11.8
			c-5.7-4.7-11.9-9-18.5-12.9c-12.8-7.7-26.8-14.1-41-20c-14.6-6.1-29.6-11.6-43.3-18.9c-10.7-5.7-21.5-13.4-24.5-24
			c-0.7-2.5-5.5-15.9,1.2-27.3c7.1-12,18.5-21.7,30.5-30.7l39-28.5c0.1-0.1,0.3-0.2,0.4-0.3c1.9,20.3,6.7,40,14.2,57.7
			c2.9,6.8,6.2,13.3,10,19.3c1.5,2.4,3.1,4.8,5.1,6.3v55.9h8.7v-55.9c0.8-0.6,1.6-1.3,2.2-2.2c3.5-4.7,6.6-10.2,9.4-15.8
			c4.5-9.2,8.3-19.1,11.2-29.5c5.8-20.6,8.2-42.9,7.4-65c-0.1-3.5-0.3-7.1-0.6-10.6c-1.8-22.1-7.1-43.7-15.6-62.6
			c-3.2-7-6.8-14-11.1-19.9c-0.9-1.3-1.8-2.4-3-3.2c-1.5-1.1-3.2-1.5-4.9-1.4C329,0.2,327.4,1,326,2.3c-0.9,0.9-1.7,2-2.4,3
			c-4.3,6.2-8,13.3-11.3,20.7c-4.2,9.5-7.5,19.6-10,30.2c-3.9,16.2-5.7,33.3-5.7,50.3c-11,3.6-80.4,32.6-103.2,52.2
			c-4.2,3.6-8.2,7.6-11.6,11.8c-1.8-6.4-4.1-12.7-6.7-18.5c-2.4-5.4-5.2-10.7-8.5-15.2c-0.7-1-1.4-1.9-2.3-2.5
			c-1.2-0.8-2.5-1.2-3.7-1.1c-1.3,0.1-2.5,0.7-3.6,1.7c-0.7,0.7-1.3,1.5-1.9,2.3c-3.3,4.7-6.2,10.2-8.6,15.9
			c-3.2,7.3-5.8,15.1-7.7,23.1c-3.9,16.3-5.1,33.7-3.9,50.8c1.2,16.8,5,33.3,11.2,47.8c2.2,5.2,4.8,10.2,7.7,14.8
			c1.2,1.8,2.3,3.7,3.9,4.9v42.9h6.7v-42.9c0.6-0.4,1.2-1,1.7-1.7c2.7-3.6,5.1-7.9,7.2-12.1c2.5-5.1,4.7-10.4,6.5-16
			c6.2,8.5,13.8,16.4,21.9,23.4c11.2,9.7,23.6,18.3,35.9,27c6.3,4.4,12.5,8.9,18.4,13.6c5.4,4.3,31.5,25.1,5.4,38
			c-13.4,6.6-27.8,11.9-41.8,17.6c-15.3,6.3-35.3,15.4-44.3,21.4c-57.3,38.3-67.2,78.4-69.3,93.5h75.9c0.3-1.7,0.7-3.4,1.1-5
			c0.9-4.3,2.9-8.5,4.8-12.5l25.3,8.3c-1.3,3-2.8,6.1-3.3,9.3h78c1.6-1.4,3.4-2.8,5.1-4.2c8.2-6.4,17-12.3,25.6-18.4
			c12-8.5,23.8-17.3,34.4-27c11.2-10.3,20.4-21.6,27.7-34c7.5-12.6,11.2-26.6,12.4-40.4C394,361.3,391.9,346.8,386.6,333.6z
			 M215.6,162.5c11.9-9.8,25.8-17.5,40-25c6.7-3.5,13.4-7,20.1-10.6l3.5,2.2c-8.3,4.9-16.7,9.6-25,14.4c-6.9,4-13.9,8.1-20.3,12.7
			c-5.4,3.9-10.9,7.9-15.4,12.5l-5.5-3.9C213.8,164,214.7,163.2,215.6,162.5z M237.5,276.8c-2.8-1.7-5.5-3.5-8.1-5.3
			c-12.3-8.3-24.3-18.4-31-30.4c-3.4-6-6.1-12.3-7.1-18.9c-0.8-5.4-1.1-10.8-0.6-16.2l9.4,0.4c0,0.1,0,0.2,0,0.3
			c-0.4,12.8,3.4,25.9,12.8,36.5c8.9,10,20.3,17.9,32.7,25L237.5,276.8z M316.6,411.8c-11.6,10.1-25,18.4-38.8,26.4
			c-12.3,7.1-24.6,13.9-36.3,21.7l-16.1-16l0.7-0.4c12.7-7.8,26.2-14.7,39.6-21.7c7.2-3.8,14.2-7.7,21-11.9
			c5.9-3.6,11.8-7.7,16.6-12.2l16.3,11.5C318.7,410,317.6,410.9,316.6,411.8z M341.6,364.2l-19.4-0.9c0-0.3,0.1-0.7,0.1-1
			c1-11.8-2.3-23.8-10.1-33.9c-8-10.3-19.3-18.5-31.1-25.9l9.2-10.1c3.5,2,7,4.1,10.3,6.3c13,8.4,24.6,18.3,32.1,30.4
			c3.5,6.1,6.2,12.3,7.6,18.9C341.4,353.4,341.8,358.8,341.6,364.2z"/>
		<path class="st0" d="M365.2,87.1C365.7,93.2,364.7,81.1,365.2,87.1L365.2,87.1z"/>
	</g>
</g>
</svg>
