<?xml version="1.0" encoding="utf-8"?>
<!-- Generator: Adobe Illustrator 23.0.3, SVG Export Plug-In . SVG Version: 6.00 Build 0)  -->
<svg version="1.1" id="Layer_1" xmlns="http://www.w3.org/2000/svg" xmlns:xlink="http://www.w3.org/1999/xlink" x="0px" y="0px"
	 viewBox="0 0 496 496" style="enable-background:new 0 0 496 496;" xml:space="preserve">
<style type="text/css">
	.st0{fill:#FFFFFF;}
</style>
<g>
	<g>
		<path class="st0" d="M365.2,0H130.8C57.4,0,0,57.5,0,130.8v234.4C0,438.6,57.4,496,130.8,496h234.4c73.3,0,130.8-57.4,130.8-130.8
			V130.8C496,57.5,438.5,0,365.2,0z M464,365.2c0,56.3-42.5,98.8-98.8,98.8H130.8C74.4,464,32,421.5,32,365.2V130.8
			C32,74.5,74.4,32,130.8,32h234.4c56.3,0,98.8,42.5,98.8,98.8V365.2z"/>
	</g>
</g>
<g>
	<g>
		<path class="st0" d="M255.1,101.5c-82.6,0-124.3,57.3-124.3,105.2c0,29,11.3,54.7,35.6,64.3c1,0.4,2,0.6,3,0.6
			c2.7,0,4.9-1.7,5.7-4.8c0.8-2.9,2.7-10.4,3.6-13.5c1.2-4.2,0.7-5.7-2.5-9.4c-7-8-11.5-18.4-11.5-33c0-42.6,32.9-80.6,85.7-80.6
			c46.7,0,72.4,27.6,72.4,64.5c0,48.5-22.2,89.5-55.1,89.5c-18.2,0-31.8-14.6-27.5-32.4c5.2-21.3,15.4-44.3,15.4-59.7
			c0-13.8-7.7-25.3-23.5-25.3c-18.6,0-33.6,18.6-33.6,43.6c0,15.9,5.6,26.6,5.6,26.6s-19,78-22.4,91.7c-6.7,27.2-1,60.6-0.5,64
			c0.2,1.2,1.2,1.9,2.2,1.9c0.7,0,1.4-0.3,1.9-0.9c1.7-2.1,23.9-28.6,31.4-55.1c2.2-7.5,12.2-46.3,12.2-46.3c6,11.2,23.7,21,42.5,21
			c55.9,0,93.8-49.3,93.8-115.3C365.2,148,321.5,101.5,255.1,101.5z"/>
	</g>
</g>
</svg>
