<?xml version="1.0" encoding="utf-8"?>
<!-- Generator: Adobe Illustrator 23.0.3, SVG Export Plug-In . SVG Version: 6.00 Build 0)  -->
<svg version="1.1" id="Calque_1" xmlns="http://www.w3.org/2000/svg" xmlns:xlink="http://www.w3.org/1999/xlink" x="0px" y="0px"
	 viewBox="0 0 575 575" style="enable-background:new 0 0 575 575;" xml:space="preserve">
<style type="text/css">
	.st0{fill:#FBB040;}
</style>
<g id="surface1">
	<path class="st0" d="M94.8,369.4c0,7.9-6.4,14.4-14.4,14.4c-7.9,0-14.4-6.4-14.4-14.4c0-7.9,6.4-14.4,14.4-14.4
		C88.4,355,94.8,361.4,94.8,369.4z"/>
	<path class="st0" d="M558,320.5c-1.8-2.4-4.6-3.9-7.7-3.9h-58.3c3.4-5.8,5.3-12.4,5.3-19.2h38.3c5.3,0,9.6-4.3,9.6-9.6V240
		c0-15.9-12.9-28.8-28.8-28.8h-24.3l-36.4-43.7c-7.3-8.7-18-13.8-29.4-13.8h-95.8c-12.8,0-24.8,6.4-31.9,17.1l-27.4,41l-55.5,6.9
		c-14.4,1.8-25.1,14-25.1,28.5v40.6c0,5.3,4.3,9.6,9.6,9.6h38.3c0,6.7,1.9,13.4,5.3,19.2h-72.4V192.1c0-5.3-4.3-9.6-9.6-9.6H56.5
		c-3.3,0-6.4,1.7-8.1,4.5L0.5,263.6c-1,1.7-1.5,3.7-1.5,5.7v95.3c0,5.3,4.3,9.6,9.6,9.6H28c2.8,29,28.5,50.2,57.5,47.5
		c25.1-2.4,45-22.3,47.5-47.5h19.4v9.6c0,5.3,4.3,9.6,9.6,9.6h105.4c5.3,0,9.6-4.3,9.6-9.6v-9.6h105.7c2.8,29,28.5,50.2,57.5,47.5
		c25.1-2.4,45-22.3,47.5-47.5h76.9c5.3,0,9.6-4.3,9.6-9.6v-19.2c0-2.1-0.7-4.1-1.9-5.7L558,320.5z M61.8,201.6h27.1l-11.5,57.6
		l-51.8,0.4L61.8,201.6z M39.6,336.4c-1.9,2.4-3.6,5-5.1,7.7c-0.1,0.3-0.3,0.5-0.5,0.8c-1.6,3.1-2.9,6.3-3.8,9.6
		c-0.1,0.2-0.2,0.3-0.2,0.5H18.2v-19.1H40C39.8,336,39.7,336.2,39.6,336.4z M80.5,402.9c-18.5,0-33.5-15-33.5-33.5
		c0-0.7,0.1-1.4,0.2-2.1l0.2-1.6c1.9-18.3,18.3-31.6,36.6-29.6c15.6,1.6,28,14,29.6,29.6l0.2,1.6c0.1,0.7,0.2,1.4,0.2,2.1
		C114,387.9,99,402.9,80.5,402.9z M152.3,355H131c0-0.2-0.2-0.3-0.2-0.5c-1-3.3-2.2-6.5-3.8-9.6c-0.1-0.3-0.3-0.5-0.5-0.7
		c-1.5-2.7-3.2-5.3-5.1-7.7c-0.1-0.2-0.2-0.4-0.4-0.6h31.4L152.3,355L152.3,355z M152.3,316.6H18.2v-37.8l66.3-0.5h0.8
		c4.5,0,8.4-3.2,9.3-7.7l13.8-69h43.9V316.6z M391.9,172.9h34.5c5.7,0,11.1,2.5,14.7,6.9l26.2,31.4h-75.4V172.9z M391.9,230.4h124.6
		c5.3,0,9.6,4.3,9.6,9.6v38.3h-34c-0.7-1.3-1.6-2.5-2.4-3.6c-0.1-0.1-0.2-0.3-0.3-0.5c-1.1-1.4-2.3-2.8-3.6-4.1
		c-0.4-0.4-0.8-0.7-1.2-1.1c-1-0.9-1.9-1.7-2.9-2.4c-0.5-0.4-1.1-0.7-1.7-1.1c-1-0.6-1.9-1.2-3-1.8c-0.6-0.3-1.2-0.6-1.9-1
		c-1-0.5-2.1-1-3.2-1.3c-0.6-0.2-1.3-0.5-1.9-0.7c-1.2-0.4-2.4-0.6-3.6-0.9c-0.6-0.1-1.2-0.3-1.8-0.4c-3.7-0.6-7.4-0.6-11.1,0
		c-0.6,0.1-1.2,0.2-1.7,0.4c-1.2,0.2-2.4,0.5-3.6,0.9c-0.7,0.2-1.3,0.4-1.9,0.7c-1.1,0.4-2.1,0.8-3.2,1.3c-0.6,0.3-1.3,0.6-1.9,1
		c-1,0.5-2,1.2-3,1.8c-0.5,0.4-1.1,0.7-1.6,1.1c-1,0.8-2,1.6-3,2.5c-0.4,0.4-0.8,0.7-1.2,1.1c-1.3,1.3-2.5,2.6-3.6,4.1
		c-0.1,0.2-0.2,0.3-0.3,0.5c-0.9,1.2-1.7,2.4-2.4,3.6h-34L391.9,230.4L391.9,230.4z M314.7,181.4c3.5-5.3,9.5-8.5,15.9-8.5h42.2
		v38.3h-77.9L314.7,181.4z M243.9,278.3h-34v-31c0-4.8,3.6-8.9,8.4-9.5l59.3-7.4h95.2v47.9H310c-0.7-1.3-1.6-2.5-2.4-3.6
		c-0.1-0.1-0.2-0.3-0.3-0.5c-1.1-1.4-2.3-2.8-3.6-4.1c-0.4-0.4-0.8-0.7-1.2-1.1c-1-0.9-1.9-1.7-2.9-2.4c-0.5-0.4-1.1-0.7-1.7-1.1
		c-1-0.6-1.9-1.2-3-1.8c-0.6-0.3-1.2-0.6-1.9-1c-1-0.5-2.1-1-3.2-1.3c-0.6-0.2-1.3-0.5-1.9-0.7c-1.2-0.4-2.4-0.6-3.6-0.9
		c-0.6-0.1-1.2-0.3-1.8-0.4c-3.7-0.6-7.4-0.6-11.1,0c-0.6,0.1-1.2,0.2-1.7,0.4c-1.2,0.2-2.4,0.5-3.6,0.9c-0.7,0.2-1.3,0.4-1.9,0.7
		c-1.1,0.4-2.1,0.8-3.2,1.3c-0.6,0.3-1.3,0.6-1.9,1c-1,0.5-2,1.2-3,1.8c-0.5,0.4-1.1,0.7-1.6,1.1c-1,0.8-2,1.6-3,2.5
		c-0.4,0.4-0.8,0.7-1.2,1.1c-1.3,1.3-2.5,2.6-3.6,4.1c-0.1,0.2-0.2,0.3-0.3,0.5C245.4,275.9,244.6,277.1,243.9,278.3z M257.8,364.6
		v9.6h-86.3v-38.3h86.3V364.6z M257.8,297.5c0-10.6,8.6-19.2,19.2-19.2c10.6,0,19.2,8.6,19.2,19.2c0,10.6-8.6,19.2-19.2,19.2
		C266.4,316.6,257.9,308,257.8,297.5z M394.2,336.4c-1.9,2.4-3.6,5-5.1,7.7c-0.1,0.3-0.3,0.5-0.5,0.8c-1.6,3.1-2.9,6.3-3.8,9.6
		c-0.1,0.2-0.2,0.3-0.2,0.5H276.9v-19.1h117.6C394.4,336,394.3,336.2,394.2,336.4z M309.9,316.6c3.5-5.8,5.3-12.4,5.3-19.2h105.4
		c0,6.7,1.9,13.4,5.3,19.2H309.9z M435.1,402.9c-18.5,0-33.5-15-33.5-33.5c0-0.7,0.1-1.4,0.2-2.1l0.2-1.6
		c1.9-18.3,18.3-31.6,36.6-29.6c15.6,1.6,28,14,29.6,29.6l0.2,1.6c0.1,0.7,0.2,1.4,0.2,2.1C468.6,387.9,453.6,402.9,435.1,402.9z
		 M459,316.6c-10.4-0.1-18.8-8.7-18.6-19.2c0.2-10.4,8.7-18.8,19.2-18.6c10.2,0.1,18.5,8.4,18.6,18.6
		C478.2,308.1,469.6,316.6,459,316.6z M554.9,355h-69.3c-0.1-0.2-0.2-0.3-0.2-0.5c-1-3.3-2.2-6.5-3.8-9.6c-0.1-0.3-0.3-0.5-0.5-0.7
		c-1.5-2.7-3.2-5.3-5.1-7.7c-0.1-0.2-0.2-0.4-0.4-0.6h69.9l9.4,12.7V355z"/>
	<path class="st0" d="M449.4,369.4c0,7.9-6.4,14.4-14.4,14.4s-14.4-6.4-14.4-14.4c0-7.9,6.4-14.4,14.4-14.4S449.4,361.4,449.4,369.4
		z"/>
</g>
</svg>
